<svg id="Capa_1" enable-background="new 0 0 512 512" height="512" viewBox="0 0 512 512" width="512" xmlns="http://www.w3.org/2000/svg"><g><path d="m143 296 11.25 75h302.75c7.249 0 13.461-5.184 14.758-12.317l8.825-48.537c1.339-7.366-4.32-14.147-11.806-14.147h-325.777z" fill="#ff3c7d"/><path d="m468.776 296h-158.527v75h146.751c7.249 0 13.461-5.184 14.758-12.317l8.825-48.537c1.339-7.365-4.32-14.146-11.807-14.146z" fill="#d31372"/><path d="m150.918 291h314.472l23.637-150h-357.609z" fill="#fff5f5"/><path d="m310.249 291h155.141l23.637-150h-178.778z" fill="#ebe1dc"/><path d="m116.996 121 28.5 190h334.927l31.331-172.317c1.674-9.208-5.399-17.683-14.758-17.683zm352.936 80h-39.941l5.773-50h43.259zm-210.616 0h-40.232l-4.182-50h43.55zm29.141-50h43.585l-2.455 50h-40.266zm-28.622 80 .864 50h-34.923l-4.182-50zm30.004 0h38.276l-2.455 50h-34.957zm68.311 0h38.177l-5.773 50h-34.859zm1.473-30 2.455-50h43.487l-5.773 50zm-174.825-50 4.182 50h-50.484l-7.5-50zm-41.802 80h48.493l4.182 50h-45.175zm277.758 50 5.773-50h37.95l-9.091 50z" fill="#ff8e8e"/><path d="m496.996 121h-186.747v30h21.793l-2.455 50h-19.338v30h17.865l-2.455 50h-15.41v30h170.174l31.331-172.317c1.674-9.207-5.4-17.683-14.758-17.683zm-106.441 160h-34.859l2.455-50h38.177zm9.236-80h-40.168l2.455-50h43.487zm55.595 80h-34.632l5.773-50h37.95zm14.546-80h-39.941l5.773-50h43.259z" fill="#ff3c7d"/><path d="m476.576 431h-318.591c-7.742 0-11.62-5.17-12.928-7.393-1.308-2.224-3.944-8.124-.184-14.892l22.893-41.208c1.554-2.797 2.637-5.829 3.207-8.977.57-3.148.619-6.369.144-9.533l-43.451-289.673c-3.331-22.206-22.047-38.324-44.501-38.324h-67.741c-8.077 0-15.027 6.207-15.407 14.275-.406 8.614 6.458 15.725 14.983 15.725h68.164c7.425 0 13.733 5.432 14.835 12.775l43.41 289.402-22.409 40.337c-7.815 14.066-7.985 31.311.139 45.201 8.16 13.951 22.692 22.285 38.846 22.285h319.015c8.525 0 15.389-7.111 14.983-15.725-.38-8.068-7.33-14.275-15.407-14.275z" fill="#ff3c7d"/><path d="m477 431h-166.751v30h166.751c8.284 0 15-6.716 15-15s-6.716-15-15-15z" fill="#d31372"/><path d="m407 491c-24.813 0-45-20.187-45-45s20.187-45 45-45 45 20.187 45 45-20.187 45-45 45z" fill="#51489a"/><path d="m217 491c-24.813 0-45-20.187-45-45s20.187-45 45-45 45 20.187 45 45-20.187 45-45 45z" fill="#51489a"/><g fill="#39326c"><path d="m407 401v90c24.813 0 45-20.187 45-45s-20.187-45-45-45z"/><path d="m217 401v90c24.813 0 45-20.187 45-45s-20.187-45-45-45z"/></g></g></svg>