<svg height="512pt" viewBox="0 0 512 512" width="512pt" xmlns="http://www.w3.org/2000/svg"><path d="m26.75 133h461.25v379h-461.25zm0 0" fill="#ffdd48"/><path d="m253.75 133h234.25v379h-234.25zm0 0" fill="#ffa820"/><path d="m82 261v235.671875h15.003906l98.996094 4.628906v.699219h30v-241zm0 0" fill="#984c00"/><path d="m281 261h143v123h-143zm0 0" fill="#d7d7d9"/><path d="m267.167969 354h170.664062v30h-170.664062zm0 0" fill="#703700"/><path d="m0 482h512v30h-512zm0 0" fill="#eee5dd"/><path d="m51.199219 217.722656c-28.277344 0-51.199219-22.921875-51.199219-51.199218v-166.523438h102.398438v166.523438c0 28.277343-22.921876 51.199218-51.199219 51.199218zm0 0" fill="#ff4f19"/><path d="m153.601562 217.722656c-28.277343 0-51.203124-22.921875-51.203124-51.199218v-166.523438h102.402343v166.523438c0 28.277343-22.921875 51.199218-51.199219 51.199218zm0 0" fill="#eee5dd"/><path d="m307.199219 0v166.519531c0 28.28125-22.917969 51.199219-51.199219 51.199219-.75 0-1.5-.019531-2.25-.058594-27.230469-1.160156-48.949219-23.609375-48.949219-51.140625v-166.519531zm0 0" fill="#ff4f19"/><path d="m358.398438 217.722656c-28.277344 0-51.199219-22.921875-51.199219-51.199218v-166.523438h102.402343v166.523438c0 28.277343-22.925781 51.199218-51.203124 51.199218zm0 0" fill="#d7d7d9"/><path d="m460.800781 217.722656c-28.277343 0-51.199219-22.921875-51.199219-51.199218v-166.523438h102.398438v166.523438c0 28.277343-22.921875 51.199218-51.199219 51.199218zm0 0" fill="#e50020"/><path d="m0 147v19.523438c0 28.277343 22.921875 51.199218 51.199219 51.199218 28.277343 0 51.199219-22.921875 51.199219-51.199218v-19.523438zm0 0" fill="#e50020"/><path d="m102.398438 147v19.523438c0 28.277343 22.925781 51.199218 51.203124 51.199218 28.277344 0 51.199219-22.921875 51.199219-51.199218v-19.523438zm0 0" fill="#d7d7d9"/><path d="m307.199219 147v19.519531c0 14.140625-5.730469 26.941407-15 36.199219-9.257813 9.269531-22.058594 15-36.199219 15-.75 0-1.5-.019531-2.25-.058594-27.230469-1.160156-48.949219-23.609375-48.949219-51.140625v-19.519531zm0 0" fill="#e50020"/><path d="m307.199219 147v19.523438c0 28.277343 22.921875 51.199218 51.199219 51.199218 28.277343 0 51.203124-22.921875 51.203124-51.199218v-19.523438zm0 0" fill="#c6c4cb"/><path d="m409.601562 147v19.523438c0 28.277343 22.921876 51.199218 51.199219 51.199218 28.277344 0 51.199219-22.921875 51.199219-51.199218v-19.523438zm0 0" fill="#c0001b"/><path d="m256 217.71875c-.75 0-1.5-.019531-2.25-.058594v-217.660156h53.449219v166.519531c0 28.28125-22.917969 51.199219-51.199219 51.199219zm0 0" fill="#e50020"/><path d="m307.199219 147v19.519531c0 14.140625-5.730469 26.941407-15 36.199219-9.257813 9.269531-22.058594 15-36.199219 15-.75 0-1.5-.019531-2.25-.058594v-70.660156zm0 0" fill="#c0001b"/><path d="m253.75 482h258.25v30h-258.25zm0 0" fill="#d7d7d9"/></svg>